<svg width="222" height="222" viewBox="0 0 222 222" fill="none" xmlns="http://www.w3.org/2000/svg">
<rect width="100%" height="100%" fill="#000"/>
<path d="M111.82 0.850055C111.792 0.849203 111.763 0.84726 111.734 0.845314C111.696 0.842704 111.657 0.840088 111.619 0.840088H111.417H111.001C110.751 0.840606 110.501 0.854254 110.253 0.880974C104.319 1.26551 98.7377 3.80488 94.5791 8.01192C90.4204 12.2189 87.9769 17.7974 87.7189 23.6772C87.4609 29.557 89.4057 35.324 93.1804 39.8721C96.9551 44.42 102.293 47.4288 108.171 48.321C108.769 48.4861 109.386 48.5706 110.005 48.5723C118.064 48.5809 126.038 50.1829 133.462 53.2845C140.885 56.3859 147.608 60.9243 153.234 66.633C164.814 78.1583 171.314 93.7506 171.314 110.003C171.314 126.256 164.814 141.849 153.234 153.374C147.612 159.09 140.89 163.632 133.465 166.735C126.039 169.837 118.061 171.434 110.001 171.434C101.941 171.434 93.9624 169.837 86.5369 166.735C79.1114 163.632 72.3893 159.09 66.7675 153.374C55.1723 141.859 48.6699 126.26 48.688 110.003C48.6608 108.672 48.9026 107.349 49.3994 106.11C49.8952 104.873 50.6368 103.745 51.578 102.794C52.5201 101.843 53.6447 101.087 54.8851 100.572C56.1256 100.056 57.4587 99.7904 58.8039 99.7904C60.1492 99.7904 61.4823 100.056 62.7228 100.572C63.9632 101.087 65.0877 101.843 66.0299 102.794C66.9711 103.745 67.7127 104.873 68.2085 106.11C68.7053 107.349 68.9471 108.672 68.9199 110.003C68.9199 110.199 68.933 110.39 68.9491 110.582C68.933 110.773 68.9199 110.961 68.9199 111.16C68.9199 119.253 71.3413 127.165 75.8798 133.897C80.4184 140.629 86.8704 145.88 94.4209 148.987C101.971 152.094 110.284 152.919 118.307 151.357C126.331 149.795 133.707 145.915 139.506 140.209C145.304 134.502 149.265 127.224 150.888 119.293C152.511 111.361 151.724 103.13 148.626 95.6409C145.528 88.1513 140.258 81.7374 133.481 77.2086C126.704 72.6799 118.723 70.239 110.546 70.1941C109.632 70.1832 108.725 70.3519 107.877 70.6903C107.03 71.0289 106.259 71.5305 105.609 72.1661C104.959 72.8018 104.442 73.5588 104.09 74.3933C103.738 75.2278 103.556 76.1232 103.556 77.0276C103.556 77.932 103.738 78.8274 104.09 79.6619C104.442 80.4965 104.959 81.2535 105.609 81.8891C106.259 82.5247 107.03 83.0263 107.877 83.3649C108.725 83.7033 109.632 83.8721 110.546 83.8611C116.055 83.8613 121.442 85.4813 126.02 88.5157C130.598 91.55 134.163 95.8619 136.261 100.905C138.359 105.947 138.897 111.492 137.805 116.837C136.713 122.182 134.042 127.086 130.13 130.926C126.217 134.766 121.241 137.369 115.831 138.406C110.422 139.442 104.822 138.865 99.7443 136.748C94.6667 134.63 90.3388 131.068 87.3108 126.512C84.2817 121.956 82.6886 116.613 82.734 111.16C82.734 110.965 82.7209 110.773 82.7047 110.582C82.7209 110.39 82.734 110.203 82.734 110.003C82.7632 106.876 82.1656 103.773 80.9766 100.875C79.7865 97.9773 78.0292 95.3413 75.8043 93.1194C73.5793 90.8975 70.9322 89.1338 68.015 87.9303C65.0978 86.7266 61.969 86.107 58.808 86.107C55.6469 86.107 52.5181 86.7266 49.601 87.9303C46.6838 89.1338 44.0366 90.8975 41.8117 93.1194C39.5868 95.3413 37.8294 97.9773 36.6394 100.875C35.4503 103.773 34.8528 106.876 34.882 110.003C34.8538 129.86 42.7912 148.915 56.9498 162.984C63.8564 169.985 72.1081 175.549 81.2184 179.347C90.3297 183.146 100.117 185.102 110.003 185.102C119.89 185.102 129.677 183.146 138.788 179.347C147.899 175.549 156.151 169.985 163.057 162.984C177.194 148.9 185.128 129.855 185.128 110.003C185.128 90.152 177.194 71.1064 163.057 57.0228C149.671 43.4665 131.507 35.5563 112.364 34.9462C112.117 34.9195 111.869 34.9058 111.62 34.9053C108.932 34.853 106.372 33.7637 104.484 31.8698C102.597 29.9757 101.532 27.427 101.517 24.767C101.501 22.107 102.536 19.5461 104.401 17.6307C106.266 15.7151 108.813 14.5963 111.5 14.513C124.082 14.5888 136.524 17.1357 148.104 22.006C159.685 26.8763 170.173 33.9732 178.961 42.8851C197.145 60.9871 207.352 85.475 207.352 111.001C207.352 136.526 197.145 161.013 178.961 179.115C170.121 188.096 159.554 195.234 147.882 200.109C136.21 204.982 123.67 207.493 111.001 207.493C98.3326 207.493 85.7922 204.982 74.1204 200.109C62.4476 195.234 51.8803 188.096 43.041 179.115C24.8325 161.031 14.6209 136.534 14.6501 111.005C14.6279 109.207 13.8913 107.489 12.5985 106.226C11.3056 104.961 9.56238 104.253 7.74455 104.253C5.92773 104.253 4.18448 104.961 2.89165 106.226C1.59882 107.489 0.862228 109.207 0.840057 111.005C0.799744 140.136 12.4463 168.091 33.2214 188.729C43.3454 198.996 55.4394 207.15 68.797 212.72C82.1556 218.29 96.5037 221.16 110.999 221.16C125.494 221.16 139.843 218.29 153.201 212.72C166.558 207.15 178.655 198.991 188.779 188.724C209.519 168.064 221.16 140.124 221.16 111.001C221.16 81.8769 209.519 53.9362 188.779 33.2758C178.748 23.1126 166.783 15.0149 153.575 9.44975C140.366 3.88452 126.175 0.96178 111.82 0.850055Z" fill="white"/>
</svg>